<svg width="60.000000" height="61.000000" viewBox="0 0 60 61" fill="none" xmlns="http://www.w3.org/2000/svg" xmlns:xlink="http://www.w3.org/1999/xlink">
	<desc>
			Created with Pixso.
	</desc>
	<defs>
		<clipPath id="clip2_238">
			<rect id="Frame" rx="0.000000" width="59.000000" height="60.000000" transform="translate(0.500000 0.500000)" fill="white" fill-opacity="0"/>
		</clipPath>
	</defs>
	<rect id="Frame" rx="0.000000" width="59.000000" height="60.000000" transform="translate(0.500000 0.500000)" fill="#FFFFFF" fill-opacity="0"/>
	<g clip-path="url(#clip2_238)">
		<path id="Vector" d="M28.02 0.04L26.52 0.13L26.52 60.86L28.02 60.95C28.59 60.98 29.16 61 29.7 61C30.25 61 30.83 60.98 31.39 60.95L32.88 60.86L32.88 0.13L31.39 0.04C30.25 -0.02 29.17 -0.02 28.02 0.04ZM42.97 30.82C42.86 30.52 42.86 30.2 42.97 29.9L51.01 8.8L50.22 8.07C49.34 7.27 48.41 6.49 47.45 5.79L45.78 4.57L37.02 27.59C36.34 29.36 36.34 31.33 37 33.1L45.75 56.42L47.44 55.2C48.4 54.49 49.33 53.72 50.2 52.91L50.98 52.18L42.97 30.82ZM9.91 27.13L2.29 17.33L1.31 20.03C0.84 21.34 0.45 22.7 0.16 24.08L0 24.82L4.28 30.3C4.43 30.48 4.43 30.75 4.28 30.93L0.02 36.29L0.19 37.04C0.48 38.41 0.88 39.75 1.35 41.05L2.33 43.7L9.9 34.15C11.55 32.06 11.55 29.24 9.91 27.13ZM59.42 24.74L55.15 30.14C55 30.33 55 30.58 55.14 30.76L59.41 36.23L59.25 36.96C58.95 38.33 58.55 39.69 58.08 41L57.1 43.69L49.51 33.94C47.87 31.82 47.87 28.99 49.54 26.89L57.13 17.3L58.11 19.97C58.58 21.27 58.96 22.62 59.26 23.99L59.42 24.74ZM11.97 5.79L13.65 4.57L22.43 27.97C23.1 29.75 23.1 31.72 22.42 33.49L13.68 56.43L12.01 55.21C11.05 54.51 10.12 53.73 9.25 52.93L8.45 52.2L16.46 31.18C16.58 30.88 16.58 30.55 16.46 30.26L8.42 8.82L9.2 8.07C10.07 7.27 11.01 6.49 11.97 5.79Z" fill="#61D7AC" fill-opacity="1.000000" fill-rule="evenodd"/>
	</g>
</svg>
