<svg width="15.000000" height="15.000000" viewBox="0 0 15 15" fill="none" xmlns="http://www.w3.org/2000/svg" xmlns:xlink="http://www.w3.org/1999/xlink">
	<desc>
			Created with Pixso.
	</desc>
	<defs>
		<clipPath id="clip2_315">
			<rect id="Frame" rx="0.000000" width="14.000000" height="14.000000" transform="translate(0.500000 0.500000)" fill="white" fill-opacity="0"/>
		</clipPath>
	</defs>
	<rect id="Frame" rx="0.000000" width="14.000000" height="14.000000" transform="translate(0.500000 0.500000)" fill="#FFFFFF" fill-opacity="0"/>
	<g clip-path="url(#clip2_315)">
		<path id="Vector" d="M7.5 1.35C9.5 1.35 9.73 1.35 10.53 1.39C11.26 1.42 11.65 1.55 11.92 1.65C12.27 1.78 12.52 1.95 12.78 2.21C13.04 2.47 13.21 2.72 13.34 3.07C13.44 3.34 13.57 3.73 13.6 4.46C13.64 5.26 13.64 5.49 13.64 7.5C13.64 9.5 13.64 9.73 13.6 10.53C13.57 11.26 13.44 11.65 13.34 11.92C13.21 12.27 13.04 12.52 12.78 12.78C12.52 13.04 12.27 13.21 11.92 13.34C11.65 13.44 11.26 13.57 10.53 13.6C9.73 13.64 9.5 13.64 7.5 13.64C5.49 13.64 5.26 13.64 4.46 13.6C3.73 13.57 3.34 13.44 3.07 13.34C2.72 13.21 2.47 13.04 2.21 12.78C1.95 12.52 1.78 12.27 1.65 11.92C1.55 11.65 1.42 11.26 1.39 10.53C1.35 9.73 1.35 9.5 1.35 7.5C1.35 5.49 1.35 5.26 1.39 4.46C1.42 3.73 1.55 3.34 1.65 3.07C1.78 2.72 1.95 2.47 2.21 2.21C2.47 1.95 2.72 1.78 3.07 1.65C3.34 1.55 3.73 1.42 4.46 1.39C5.26 1.35 5.49 1.35 7.5 1.35ZM7.5 0C5.46 0 5.2 0 4.4 0.04C3.6 0.08 3.06 0.2 2.58 0.39C2.09 0.58 1.67 0.84 1.25 1.25C0.84 1.67 0.58 2.09 0.39 2.58C0.2 3.06 0.08 3.6 0.04 4.4C0 5.2 0 5.46 0 7.5C0 9.53 0 9.79 0.04 10.59C0.08 11.39 0.2 11.93 0.39 12.41C0.58 12.9 0.84 13.32 1.25 13.74C1.67 14.15 2.09 14.41 2.58 14.6C3.06 14.79 3.6 14.91 4.4 14.95C5.2 14.99 5.46 15 7.5 15C9.53 15 9.79 14.99 10.59 14.95C11.39 14.91 11.93 14.79 12.41 14.6C12.9 14.41 13.32 14.15 13.74 13.74C14.15 13.32 14.41 12.9 14.6 12.41C14.79 11.93 14.91 11.39 14.95 10.59C14.99 9.79 15 9.53 15 7.5C15 5.46 14.99 5.2 14.95 4.4C14.91 3.6 14.79 3.06 14.6 2.58C14.41 2.09 14.15 1.67 13.74 1.25C13.32 0.84 12.9 0.58 12.41 0.39C11.93 0.2 11.39 0.08 10.59 0.04C9.79 0 9.53 0 7.5 0Z" fill="#9FA4A6" fill-opacity="1.000000" fill-rule="nonzero"/>
		<path id="Vector" d="M7.5 3.65C5.37 3.65 3.65 5.37 3.65 7.5C3.65 9.63 5.37 11.35 7.5 11.35C9.63 11.35 11.35 9.63 11.35 7.5C11.35 5.37 9.63 3.65 7.5 3.65ZM7.5 10C6.12 10 5 8.88 5 7.5C5 6.12 6.12 5 7.5 5C8.88 5 10 6.12 10 7.5C10 8.88 8.88 10 7.5 10Z" fill="#9FA4A6" fill-opacity="1.000000" fill-rule="nonzero"/>
		<path id="Vector" d="M12.4 3.49C12.4 3.99 12 4.39 11.5 4.39C11 4.39 10.6 3.99 10.6 3.49C10.6 3 11 2.59 11.5 2.59C12 2.59 12.4 3 12.4 3.49Z" fill="#9FA4A6" fill-opacity="1.000000" fill-rule="nonzero"/>
	</g>
</svg>
