<svg width="16.000000" height="16.000000" viewBox="0 0 16 16" fill="none" xmlns="http://www.w3.org/2000/svg" xmlns:xlink="http://www.w3.org/1999/xlink">
	<desc>
			Created with Pixso.
	</desc>
	<defs>
		<clipPath id="clip2_319">
			<rect id="Frame" rx="0.000000" width="15.000000" height="15.000000" transform="translate(0.500000 0.500000)" fill="white" fill-opacity="0"/>
		</clipPath>
	</defs>
	<rect id="Frame" rx="0.000000" width="15.000000" height="15.000000" transform="translate(0.500000 0.500000)" fill="#FFFFFF" fill-opacity="0"/>
	<g clip-path="url(#clip2_319)">
		<path id="Vector" d="M3.32 2.33C3.32 3.25 2.58 4 1.66 4C0.75 4 0.01 3.25 0.01 2.33C0.01 1.41 0.75 0.66 1.66 0.66C2.58 0.66 3.32 1.41 3.32 2.33ZM3.33 5.33L0 5.33L0 16L3.33 16L3.33 5.33ZM8.65 5.33L5.34 5.33L5.34 16L8.65 16L8.65 10.4C8.65 7.28 12.67 7.03 12.67 10.4L12.67 16L16 16L16 9.24C16 3.99 10.05 4.18 8.65 6.77L8.65 5.33Z" fill="#9FA4A6" fill-opacity="1.000000" fill-rule="nonzero"/>
	</g>
</svg>
